<?xml version="1.0" encoding="UTF-8" standalone="no"?>
<!DOCTYPE svg PUBLIC "-//W3C//DTD SVG 1.1//EN" "http://www.w3.org/Graphics/SVG/1.1/DTD/svg11.dtd">
<svg width="100%" height="100%" viewBox="0 0 143 143" version="1.1" xmlns="http://www.w3.org/2000/svg" xmlns:xlink="http://www.w3.org/1999/xlink" xml:space="preserve" xmlns:serif="http://www.serif.com/" style="fill-rule:evenodd;clip-rule:evenodd;stroke-miterlimit:10;">
    <g transform="matrix(1.90637,0,0,1.90637,-1334.93,-304.37)">
        <g id="Group_5255">
            <g id="Group_5222">
                <g id="Rectangle_26357" transform="matrix(1,0,0,1,702.301,171.906)">
                    <rect x="0" y="0" width="35.396" height="55.143" style="fill:rgb(8,197,255);"/>
                </g>
                <g id="Rectangle_26358" transform="matrix(1,0,0,1,702.301,171.906)">
                    <rect x="0" y="0" width="35.396" height="55.143" style="fill:none;stroke:rgb(84,84,84);stroke-width:1.48px;"/>
                </g>
                <g id="Rectangle_26359" transform="matrix(1,0,0,1,737.698,171.988)">
                    <rect x="0" y="0" width="35.396" height="55.061" style="fill:rgb(8,197,255);"/>
                </g>
                <g id="Rectangle_26360" transform="matrix(1,0,0,1,737.698,171.988)">
                    <rect x="0" y="0" width="35.396" height="55.061" style="fill:none;stroke:rgb(84,84,84);stroke-width:1.48px;"/>
                </g>
                <g id="Rectangle_26361" transform="matrix(1,0,0,1,702.301,223.148)">
                    <rect x="0" y="0" width="35.396" height="3.901" style="fill:rgb(8,197,255);"/>
                </g>
                <g id="Rectangle_26362" transform="matrix(1,0,0,1,702.301,223.148)">
                    <rect x="0" y="0" width="35.396" height="3.901" style="fill:none;stroke:rgb(84,84,84);stroke-width:1.48px;"/>
                </g>
                <g id="Rectangle_26363" transform="matrix(1,0,0,1,737.698,223.154)">
                    <rect x="0" y="0" width="35.396" height="3.895" style="fill:rgb(8,197,255);"/>
                </g>
                <g id="Rectangle_26364" transform="matrix(1,0,0,1,737.698,223.154)">
                    <rect x="0" y="0" width="35.396" height="3.895" style="fill:none;stroke:rgb(84,84,84);stroke-width:1.48px;"/>
                </g>
                <path id="Path_1973" d="M729.832,168.087L706.153,168.087L706.153,207.416L729.832,207.416C734.147,207.416 737.698,210.967 737.698,215.282L737.698,175.952C737.698,171.637 734.148,168.087 729.833,168.087C729.833,168.087 729.832,168.087 729.832,168.087" style="fill:white;fill-rule:nonzero;"/>
                <path id="Path_1974" d="M729.832,168.087L706.153,168.087L706.153,207.416L729.832,207.416C734.147,207.416 737.698,210.967 737.698,215.282L737.698,175.952C737.698,171.637 734.148,168.087 729.833,168.087C729.833,168.087 729.832,168.087 729.832,168.087Z" style="fill:none;fill-rule:nonzero;stroke:rgb(84,84,84);stroke-width:1.48px;"/>
                <path id="Path_1975" d="M745.564,168.087L769.08,168.087L769.08,207.416L745.564,207.416C741.249,207.416 737.698,210.967 737.698,215.282L737.698,175.952C737.698,171.637 741.248,168.087 745.563,168.087C745.563,168.087 745.564,168.087 745.564,168.087" style="fill:white;fill-rule:nonzero;"/>
                <path id="Path_1976" d="M745.564,168.087L769.08,168.087L769.08,207.416L745.564,207.416C741.249,207.416 737.698,210.967 737.698,215.282L737.698,175.952C737.698,171.637 741.248,168.087 745.563,168.087C745.563,168.087 745.564,168.087 745.564,168.087Z" style="fill:none;fill-rule:nonzero;stroke:rgb(84,84,84);stroke-width:1.48px;"/>
                <path id="Path_1977" d="M729.832,207.416L706.153,207.416L706.153,218.887L737.7,218.887L737.7,215.287C737.7,210.972 734.149,207.421 729.834,207.421" style="fill:white;fill-rule:nonzero;"/>
                <path id="Path_1978" d="M729.832,207.416L706.153,207.416L706.153,218.887L737.7,218.887L737.7,215.287C737.7,215.285 737.7,215.284 737.7,215.282C737.7,210.967 734.149,207.416 729.834,207.416C729.833,207.416 729.833,207.416 729.832,207.416Z" style="fill:none;fill-rule:nonzero;stroke:rgb(84,84,84);stroke-width:1.48px;"/>
                <path id="Path_1979" d="M745.564,207.416L769.08,207.416L769.08,218.887L737.7,218.887L737.7,215.287C737.7,210.972 741.251,207.421 745.566,207.421" style="fill:white;fill-rule:nonzero;"/>
                <path id="Path_1980" d="M745.564,207.416L769.08,207.416L769.08,218.887L737.7,218.887L737.7,215.287C737.7,215.285 737.7,215.284 737.7,215.282C737.7,210.968 741.25,207.417 745.564,207.416Z" style="fill:none;fill-rule:nonzero;stroke:rgb(84,84,84);stroke-width:1.48px;"/>
                <path id="Path_1981" d="M750.91,166.858L750.91,189.7L755.396,186.74L759.882,189.7L759.882,166.858L750.91,166.858Z" style="fill:rgb(239,94,94);fill-rule:nonzero;"/>
                <path id="Path_1982" d="M750.91,166.858L750.91,189.7L755.396,186.74L759.882,189.7L759.882,166.858L750.91,166.858Z" style="fill:none;fill-rule:nonzero;stroke:rgb(84,84,84);stroke-width:1.48px;"/>
                <g id="Line_382" transform="matrix(1,0,0,1,714.674,175.952)">
                    <path d="M0,0L13.274,0" style="fill:none;fill-rule:nonzero;"/>
                </g>
                <g id="Line_383" transform="matrix(1,0,0,1,714.674,175.952)">
                    <path d="M0,0L13.274,0" style="fill:none;fill-rule:nonzero;stroke:rgb(84,84,84);stroke-width:1.48px;"/>
                </g>
                <g id="Line_384" transform="matrix(1,0,0,1,711.724,179.885)">
                    <path d="M0,0L19.665,0" style="fill:none;fill-rule:nonzero;"/>
                </g>
                <g id="Line_385" transform="matrix(1,0,0,1,711.724,179.885)">
                    <path d="M0,0L19.665,0" style="fill:none;fill-rule:nonzero;stroke:rgb(84,84,84);stroke-width:1.48px;"/>
                </g>
                <g id="Line_386" transform="matrix(1,0,0,1,711.724,183.818)">
                    <path d="M0,0L19.665,0" style="fill:none;fill-rule:nonzero;"/>
                </g>
                <g id="Line_387" transform="matrix(1,0,0,1,711.724,183.818)">
                    <path d="M0,0L19.665,0" style="fill:none;fill-rule:nonzero;stroke:rgb(84,84,84);stroke-width:1.48px;"/>
                </g>
                <g id="Line_388" transform="matrix(1,0,0,1,711.724,187.751)">
                    <path d="M0,0L19.665,0" style="fill:none;fill-rule:nonzero;"/>
                </g>
                <g id="Line_389" transform="matrix(1,0,0,1,711.724,187.751)">
                    <path d="M0,0L19.665,0" style="fill:none;fill-rule:nonzero;stroke:rgb(84,84,84);stroke-width:1.48px;"/>
                </g>
                <g id="Line_390" transform="matrix(1,0,0,1,711.724,191.684)">
                    <path d="M0,0L19.665,0" style="fill:none;fill-rule:nonzero;"/>
                </g>
                <g id="Line_391" transform="matrix(1,0,0,1,711.724,191.684)">
                    <path d="M0,0L19.665,0" style="fill:none;fill-rule:nonzero;stroke:rgb(84,84,84);stroke-width:1.48px;"/>
                </g>
                <g id="Line_392" transform="matrix(1,0,0,1,711.724,195.617)">
                    <path d="M0,0L19.665,0" style="fill:none;fill-rule:nonzero;"/>
                </g>
                <g id="Line_393" transform="matrix(1,0,0,1,711.724,195.617)">
                    <path d="M0,0L19.665,0" style="fill:none;fill-rule:nonzero;stroke:rgb(84,84,84);stroke-width:1.48px;"/>
                </g>
                <g id="Line_394" transform="matrix(1,0,0,1,711.724,199.55)">
                    <path d="M0,0L19.665,0" style="fill:none;fill-rule:nonzero;"/>
                </g>
                <g id="Line_395" transform="matrix(1,0,0,1,711.724,199.55)">
                    <path d="M0,0L19.665,0" style="fill:none;fill-rule:nonzero;stroke:rgb(84,84,84);stroke-width:1.48px;"/>
                </g>
            </g>
        </g>
    </g>
</svg>
