<?xml version="1.0" encoding="UTF-8" standalone="no"?>
<!DOCTYPE svg PUBLIC "-//W3C//DTD SVG 1.1//EN" "http://www.w3.org/Graphics/SVG/1.1/DTD/svg11.dtd">
<svg width="100%" height="100%" viewBox="0 0 143 143" version="1.1" xmlns="http://www.w3.org/2000/svg" xmlns:xlink="http://www.w3.org/1999/xlink" xml:space="preserve" xmlns:serif="http://www.serif.com/" style="fill-rule:evenodd;clip-rule:evenodd;stroke-miterlimit:10;">
    <g transform="matrix(1.9509,0,0,1.9509,-5456.01,-10496)">
        <g id="Group_5266">
            <g id="Group_5253">
                <g id="Path_2845" transform="matrix(1,0,0,1,2101.08,8854.47)">
                    <path d="M766.28,-3437.56C766.28,-3437.56 751.12,-3418.75 732.419,-3418.75C713.718,-3418.75 698.558,-3437.56 698.558,-3437.56C698.558,-3437.56 713.718,-3456.37 732.419,-3456.37C751.12,-3456.37 766.28,-3437.56 766.28,-3437.56" style="fill:white;fill-rule:nonzero;"/>
                </g>
                <g id="Path_2846" transform="matrix(1,0,0,1,2101.08,8854.47)">
                    <path d="M766.28,-3437.56C766.28,-3437.56 751.12,-3418.75 732.419,-3418.75C713.718,-3418.75 698.558,-3437.56 698.558,-3437.56C698.558,-3437.56 713.718,-3456.37 732.419,-3456.37C751.12,-3456.37 766.28,-3437.56 766.28,-3437.56Z" style="fill:none;fill-rule:nonzero;stroke:rgb(84,84,84);stroke-width:1.41px;"/>
                </g>
                <g id="Path_2847" transform="matrix(1,0,0,1,2101.08,8854.47)">
                    <path d="M751.231,-3437.56C751.231,-3437.56 751.231,-3437.56 751.231,-3437.56C751.231,-3427.24 742.739,-3418.75 732.42,-3418.75C732.42,-3418.75 732.419,-3418.75 732.419,-3418.75C722.1,-3418.75 713.608,-3427.24 713.608,-3437.56C713.608,-3437.56 713.608,-3437.56 713.608,-3437.56C713.608,-3447.88 722.1,-3456.37 732.419,-3456.37C732.419,-3456.37 732.42,-3456.37 732.42,-3456.37C742.739,-3456.37 751.231,-3447.88 751.231,-3437.56" style="fill:rgb(8,197,255);fill-rule:nonzero;"/>
                </g>
                <g id="Ellipse_114" transform="matrix(1,0,0,1,2814.69,5398.1)">
                    <circle cx="18.812" cy="18.812" r="18.812" style="fill:none;stroke:rgb(84,84,84);stroke-width:1.41px;"/>
                </g>
                <g id="Path_2848" transform="matrix(1,0,0,1,2101.08,8854.47)">
                    <path d="M739.944,-3437.56C739.944,-3433.43 736.547,-3430.04 732.419,-3430.04C728.291,-3430.04 724.895,-3433.43 724.895,-3437.56C724.895,-3441.69 728.291,-3445.09 732.419,-3445.09C736.547,-3445.09 739.943,-3441.69 739.944,-3437.56" style="fill:rgb(84,84,84);fill-rule:nonzero;"/>
                </g>
            </g>
        </g>
    </g>
</svg>
