<?xml version="1.0" encoding="UTF-8" standalone="no"?>
<!DOCTYPE svg PUBLIC "-//W3C//DTD SVG 1.1//EN" "http://www.w3.org/Graphics/SVG/1.1/DTD/svg11.dtd">
<svg width="100%" height="100%" viewBox="0 0 142 143" version="1.1" xmlns="http://www.w3.org/2000/svg" xmlns:xlink="http://www.w3.org/1999/xlink" xml:space="preserve" xmlns:serif="http://www.serif.com/" style="fill-rule:evenodd;clip-rule:evenodd;stroke-linejoin:round;">
    <g transform="matrix(1.6328,0,0,1.6328,-2857.23,-9918.12)">
        <g id="Group_5277">
            <g id="Group_5230">
                <g id="Rectangle_26728" transform="matrix(1,0,0,1,1757.05,6086.55)">
                    <rect x="0" y="0" width="36.067" height="22.542" style="fill:white;stroke:rgb(84,84,84);stroke-width:1.69px;"/>
                </g>
                <g id="Path_2168" transform="matrix(1,0,0,1,3996.52,9527.5)">
                    <path d="M-2239.47,-3418.4L-2221.43,-3431.93L-2203.4,-3418.4L-2239.47,-3418.4Z" style="fill:white;fill-rule:nonzero;stroke:rgb(84,84,84);stroke-width:1.69px;"/>
                </g>
                <g id="Path_2169" transform="matrix(1,0,0,1,3996.52,9527.5)">
                    <path d="M-2203.4,-3440.95L-2221.43,-3427.42L-2239.47,-3440.95L-2203.4,-3440.95Z" style="fill:white;fill-rule:nonzero;"/>
                </g>
                <g id="Path_2170" transform="matrix(1,0,0,1,3996.52,9527.5)">
                    <path d="M-2203.4,-3440.95L-2221.43,-3427.42L-2239.47,-3440.95L-2203.4,-3440.95Z" style="fill:none;fill-rule:nonzero;stroke:rgb(84,84,84);stroke-width:1.69px;"/>
                </g>
                <g id="Rectangle_26729" transform="matrix(1,0,0,1,1757.05,6145.16)">
                    <rect x="0" y="0" width="45.084" height="4.508" style="fill:rgb(239,94,94);"/>
                </g>
                <g id="Rectangle_26730" transform="matrix(1,0,0,1,1757.05,6145.16)">
                    <rect x="0" y="0" width="45.084" height="4.508" style="fill:none;stroke:rgb(84,84,84);stroke-width:1.69px;stroke-linejoin:miter;stroke-miterlimit:10;"/>
                </g>
                <g id="Rectangle_26731" transform="matrix(1,0,0,1,1752.54,6140.65)">
                    <rect x="0" y="0" width="54.101" height="4.508" style="fill:white;"/>
                </g>
                <g id="Rectangle_26732" transform="matrix(1,0,0,1,1752.54,6140.65)">
                    <rect x="0" y="0" width="54.101" height="4.508" style="fill:none;stroke:rgb(84,84,84);stroke-width:1.69px;stroke-linejoin:miter;stroke-miterlimit:10;"/>
                </g>
                <g id="Path_2171" transform="matrix(1,0,0,1,3996.52,9527.5)">
                    <path d="M-2212.61,-3406.52L-2221.24,-3406.52C-2220.9,-3404.79 -2220.69,-3403.03 -2220.6,-3401.27C-2220.52,-3399.2 -2220.53,-3397.66 -2220.53,-3397.66C-2220.53,-3397.66 -2220.53,-3397.66 -2220.53,-3397.66C-2220.53,-3391.73 -2225.41,-3386.85 -2231.35,-3386.85C-2231.35,-3386.85 -2231.35,-3386.85 -2231.35,-3386.85L-2202.5,-3386.85C-2202.5,-3386.85 -2202.5,-3386.85 -2202.51,-3386.85C-2208.44,-3386.85 -2213.32,-3391.73 -2213.32,-3397.66C-2213.32,-3397.66 -2213.32,-3397.66 -2213.32,-3397.66C-2213.32,-3397.67 -2213.33,-3399.2 -2213.25,-3401.27C-2213.16,-3403.03 -2212.95,-3404.79 -2212.61,-3406.52Z" style="fill:white;fill-rule:nonzero;stroke:rgb(84,84,84);stroke-width:1.69px;stroke-linejoin:miter;stroke-miterlimit:10;"/>
                </g>
                <g id="Path_2172" transform="matrix(1,0,0,1,3996.52,9527.5)">
                    <path d="M-2210.8,-3411.9C-2210.09,-3413.04 -2209.72,-3414.36 -2209.72,-3415.7C-2209.72,-3419.66 -2212.97,-3422.91 -2216.93,-3422.91C-2216.93,-3422.91 -2216.93,-3422.91 -2216.93,-3422.91C-2220.89,-3422.91 -2224.14,-3419.66 -2224.14,-3415.7C-2224.14,-3414.36 -2223.77,-3413.04 -2223.06,-3411.9C-2222.16,-3410.22 -2221.54,-3408.4 -2221.24,-3406.52L-2212.61,-3406.52C-2212.32,-3408.41 -2211.7,-3410.22 -2210.8,-3411.9" style="fill:rgb(8,197,255);fill-rule:nonzero;"/>
                </g>
                <g id="Path_2173" transform="matrix(1,0,0,1,3996.52,9527.5)">
                    <path d="M-2210.8,-3411.9C-2210.09,-3413.04 -2209.72,-3414.36 -2209.72,-3415.7C-2209.72,-3419.66 -2212.97,-3422.91 -2216.93,-3422.91C-2216.93,-3422.91 -2216.93,-3422.91 -2216.93,-3422.91C-2220.89,-3422.91 -2224.14,-3419.66 -2224.14,-3415.7C-2224.14,-3414.36 -2223.77,-3413.04 -2223.06,-3411.9C-2222.16,-3410.22 -2221.54,-3408.4 -2221.24,-3406.52L-2212.61,-3406.52C-2212.32,-3408.4 -2211.7,-3410.22 -2210.8,-3411.9Z" style="fill:none;fill-rule:nonzero;stroke:rgb(84,84,84);stroke-width:1.69px;stroke-linejoin:miter;stroke-miterlimit:10;"/>
                </g>
                <g id="Rectangle_26733" transform="matrix(1,0,0,1,1797.62,6086.55)">
                    <rect x="0" y="0" width="36.067" height="49.593" style="fill:none;stroke:rgb(84,84,84);stroke-width:1.69px;stroke-linejoin:miter;stroke-miterlimit:10;"/>
                </g>
                <g id="Rectangle_26734" transform="matrix(1,0,0,1,1802.13,6091.06)">
                    <rect x="0" y="0" width="27.051" height="40.576" style="fill:none;stroke:rgb(84,84,84);stroke-width:1.69px;stroke-linejoin:miter;stroke-miterlimit:10;"/>
                </g>
                <g id="Line_504" transform="matrix(1,0,0,1,1802.13,6124.87)">
                    <path d="M0,0L27.051,0" style="fill:none;fill-rule:nonzero;stroke:rgb(84,84,84);stroke-width:1.69px;stroke-linejoin:miter;stroke-miterlimit:10;"/>
                </g>
                <g id="Line_505" transform="matrix(1,0,0,1,1802.13,6115.96)">
                    <path d="M0,0L27.051,0" style="fill:none;fill-rule:nonzero;stroke:rgb(84,84,84);stroke-width:1.69px;stroke-linejoin:miter;stroke-miterlimit:10;"/>
                </g>
                <g id="Line_506" transform="matrix(1,0,0,1,1802.13,6106.84)">
                    <path d="M0,0L27.051,0" style="fill:none;fill-rule:nonzero;stroke:rgb(84,84,84);stroke-width:1.69px;stroke-linejoin:miter;stroke-miterlimit:10;"/>
                </g>
                <g id="Line_507" transform="matrix(1,0,0,1,1802.13,6097.82)">
                    <path d="M0,0L27.051,0" style="fill:none;fill-rule:nonzero;stroke:rgb(84,84,84);stroke-width:1.69px;stroke-linejoin:miter;stroke-miterlimit:10;"/>
                </g>
                <g id="Path_2174" transform="matrix(1,0,0,1,3996.52,9527.5)">
                    <path d="M-2185.37,-3429.68C-2185.37,-3428.44 -2186.39,-3427.42 -2187.62,-3427.42C-2188.86,-3427.42 -2189.88,-3428.44 -2189.88,-3429.68C-2189.88,-3430.91 -2188.86,-3431.93 -2187.62,-3431.93C-2186.38,-3431.93 -2185.37,-3430.91 -2185.37,-3429.68" style="fill:rgb(239,94,94);fill-rule:nonzero;"/>
                </g>
                <g id="Ellipse_48" transform="matrix(1,0,0,1,1806.64,6095.57)">
                    <circle cx="2.254" cy="2.254" r="2.254" style="fill:none;stroke:rgb(84,84,84);stroke-width:1.69px;stroke-linejoin:miter;stroke-miterlimit:10;"/>
                </g>
                <g id="Path_2175" transform="matrix(1,0,0,1,3996.52,9527.5)">
                    <path d="M-2178.6,-3429.68C-2178.6,-3428.44 -2179.62,-3427.42 -2180.85,-3427.42C-2182.09,-3427.42 -2183.11,-3428.44 -2183.11,-3429.68C-2183.11,-3430.91 -2182.09,-3431.93 -2180.85,-3431.93C-2179.62,-3431.93 -2178.6,-3430.91 -2178.6,-3429.68" style="fill:rgb(239,94,94);fill-rule:nonzero;"/>
                </g>
                <g id="Ellipse_49" transform="matrix(1,0,0,1,1813.4,6095.57)">
                    <circle cx="2.254" cy="2.254" r="2.254" style="fill:none;stroke:rgb(84,84,84);stroke-width:1.69px;stroke-linejoin:miter;stroke-miterlimit:10;"/>
                </g>
                <g id="Path_2176" transform="matrix(1,0,0,1,3996.52,9527.5)">
                    <path d="M-2181.99,-3402.62C-2181.99,-3401.39 -2183,-3400.37 -2184.24,-3400.37C-2185.48,-3400.37 -2186.49,-3401.39 -2186.49,-3402.62C-2186.49,-3402.62 -2186.49,-3402.62 -2186.49,-3402.62C-2186.49,-3403.86 -2185.48,-3404.88 -2184.24,-3404.88C-2183,-3404.88 -2181.99,-3403.86 -2181.99,-3402.62" style="fill:rgb(8,197,255);fill-rule:nonzero;"/>
                </g>
                <g id="Ellipse_50" transform="matrix(1,0,0,1,1810.02,6122.62)">
                    <circle cx="2.254" cy="2.254" r="2.254" style="fill:none;stroke:rgb(84,84,84);stroke-width:1.69px;stroke-linejoin:miter;stroke-miterlimit:10;"/>
                </g>
                <g id="Path_2177" transform="matrix(1,0,0,1,3996.52,9527.5)">
                    <path d="M-2175.22,-3402.62C-2175.22,-3401.39 -2176.24,-3400.37 -2177.48,-3400.37C-2178.71,-3400.37 -2179.73,-3401.39 -2179.73,-3402.62C-2179.73,-3403.86 -2178.71,-3404.88 -2177.48,-3404.88C-2176.24,-3404.88 -2175.22,-3403.86 -2175.22,-3402.62" style="fill:rgb(8,197,255);fill-rule:nonzero;"/>
                </g>
                <g id="Ellipse_51" transform="matrix(1,0,0,1,1816.78,6122.62)">
                    <circle cx="2.254" cy="2.254" r="2.254" style="fill:none;stroke:rgb(84,84,84);stroke-width:1.69px;stroke-linejoin:miter;stroke-miterlimit:10;"/>
                </g>
                <g id="Path_2178" transform="matrix(1,0,0,1,3996.52,9527.5)">
                    <path d="M-2171.84,-3429.68C-2171.84,-3428.44 -2172.86,-3427.42 -2174.1,-3427.42C-2175.33,-3427.42 -2176.35,-3428.44 -2176.35,-3429.68C-2176.35,-3430.91 -2175.33,-3431.93 -2174.1,-3431.93C-2172.86,-3431.93 -2171.84,-3430.91 -2171.84,-3429.68" style="fill:rgb(239,94,94);fill-rule:nonzero;"/>
                </g>
                <g id="Ellipse_52" transform="matrix(1,0,0,1,1820.17,6095.57)">
                    <circle cx="2.254" cy="2.254" r="2.254" style="fill:none;stroke:rgb(84,84,84);stroke-width:1.69px;stroke-linejoin:miter;stroke-miterlimit:10;"/>
                </g>
                <g id="Path_2179" transform="matrix(1,0,0,1,3996.52,9527.5)">
                    <path d="M-2171.84,-3411.54C-2171.84,-3410.3 -2172.86,-3409.28 -2174.1,-3409.28C-2175.33,-3409.28 -2176.35,-3410.3 -2176.35,-3411.54C-2176.35,-3412.77 -2175.33,-3413.79 -2174.1,-3413.79C-2172.86,-3413.79 -2171.84,-3412.77 -2171.84,-3411.54" style="fill:rgb(239,94,94);fill-rule:nonzero;"/>
                </g>
                <g id="Ellipse_53" transform="matrix(1,0,0,1,1820.17,6113.71)">
                    <circle cx="2.254" cy="2.254" r="2.254" style="fill:none;stroke:rgb(84,84,84);stroke-width:1.69px;stroke-linejoin:miter;stroke-miterlimit:10;"/>
                </g>
                <g id="Path_2180" transform="matrix(1,0,0,1,3996.52,9527.5)">
                    <path d="M-2185.37,-3420.66C-2185.37,-3419.42 -2186.38,-3418.4 -2187.62,-3418.4C-2188.86,-3418.4 -2189.88,-3419.42 -2189.88,-3420.66C-2189.88,-3421.89 -2188.86,-3422.91 -2187.62,-3422.91C-2186.39,-3422.91 -2185.37,-3421.89 -2185.37,-3420.66" style="fill:rgb(8,197,255);fill-rule:nonzero;"/>
                </g>
                <g id="Ellipse_54" transform="matrix(1,0,0,1,1806.64,6104.59)">
                    <circle cx="2.254" cy="2.254" r="2.254" style="fill:none;stroke:rgb(84,84,84);stroke-width:1.69px;stroke-linejoin:miter;stroke-miterlimit:10;"/>
                </g>
                <g id="Path_2181" transform="matrix(1,0,0,1,3996.52,9527.5)">
                    <path d="M-2178.6,-3420.66C-2178.6,-3419.42 -2179.62,-3418.4 -2180.85,-3418.4C-2182.09,-3418.4 -2183.11,-3419.42 -2183.11,-3420.66C-2183.11,-3421.89 -2182.09,-3422.91 -2180.85,-3422.91C-2179.62,-3422.91 -2178.6,-3421.89 -2178.6,-3420.66" style="fill:rgb(8,197,255);fill-rule:nonzero;"/>
                </g>
                <g id="Ellipse_55" transform="matrix(1,0,0,1,1813.4,6104.59)">
                    <circle cx="2.254" cy="2.254" r="2.254" style="fill:none;stroke:rgb(84,84,84);stroke-width:1.69px;stroke-linejoin:miter;stroke-miterlimit:10;"/>
                </g>
                <g id="Line_508" transform="matrix(1,0,0,1,1766.07,6122.62)">
                    <path d="M9.492,0L0,0" style="fill:none;fill-rule:nonzero;stroke:rgb(84,84,84);stroke-width:1.69px;"/>
                </g>
                <g id="Line_509" transform="matrix(1,0,0,1,1752.54,6127.13)">
                    <path d="M23.404,0L0,0" style="fill:none;fill-rule:nonzero;stroke:rgb(84,84,84);stroke-width:1.69px;"/>
                </g>
                <g id="Line_510" transform="matrix(1,0,0,1,1757.05,6131.64)">
                    <path d="M18.784,0L0,0" style="fill:none;fill-rule:nonzero;stroke:rgb(84,84,84);stroke-width:1.69px;"/>
                </g>
                <g id="Line_511" transform="matrix(1,0,0,1,1783.24,6127.13)">
                    <path d="M0,0L9.879,0" style="fill:none;fill-rule:nonzero;stroke:rgb(84,84,84);stroke-width:1.69px;"/>
                </g>
                <g id="Line_512" transform="matrix(1,0,0,1,1783.35,6131.64)">
                    <path d="M0,0L5.259,0" style="fill:none;fill-rule:nonzero;stroke:rgb(84,84,84);stroke-width:1.69px;"/>
                </g>
            </g>
        </g>
    </g>
</svg>
