<?xml version="1.0" encoding="UTF-8" standalone="no"?>
<!DOCTYPE svg PUBLIC "-//W3C//DTD SVG 1.1//EN" "http://www.w3.org/Graphics/SVG/1.1/DTD/svg11.dtd">
<svg width="100%" height="100%" viewBox="0 0 142 143" version="1.1" xmlns="http://www.w3.org/2000/svg" xmlns:xlink="http://www.w3.org/1999/xlink" xml:space="preserve" xmlns:serif="http://www.serif.com/" style="fill-rule:evenodd;clip-rule:evenodd;stroke-miterlimit:10;">
    <g transform="matrix(1.80185,0,0,1.80185,-1047.9,-285.188)">
        <g id="Group_5271">
            <g id="Group_5219">
                <path id="Path_1929" d="M624.978,198.039C624.978,200.284 623.13,202.132 620.885,202.132C618.64,202.132 616.792,200.284 616.792,198.039C616.792,195.794 618.64,193.946 620.885,193.946C623.13,193.947 624.977,195.794 624.978,198.039" style="fill:rgb(239,94,94);fill-rule:nonzero;"/>
                <g id="Ellipse_24" transform="matrix(1,0,0,1,616.792,193.946)">
                    <circle cx="4.093" cy="4.093" r="4.093" style="fill:none;stroke:rgb(84,84,84);stroke-width:1.54px;"/>
                </g>
                <g id="Ellipse_25" transform="matrix(0.92388,-0.382683,0.382683,0.92388,601.947,190.195)">
                    <circle cx="14.495" cy="14.495" r="14.495" style="fill:none;stroke:rgb(84,84,84);stroke-width:1.54px;stroke-linejoin:round;stroke-miterlimit:4;"/>
                </g>
                <path id="Path_1930" d="M642.969,198.039C642.969,210.153 633,220.122 620.886,220.122C608.772,220.122 598.803,210.153 598.803,198.039C598.803,185.925 608.771,175.957 620.885,175.956C620.885,175.956 620.886,175.956 620.886,175.956C633,175.956 642.969,185.925 642.969,198.039L642.969,198.039Z" style="fill:none;fill-rule:nonzero;stroke:rgb(84,84,84);stroke-width:1.54px;stroke-linejoin:round;stroke-miterlimit:4;"/>
                <g id="Ellipse_26" transform="matrix(1,0,0,1,592.236,169.39)">
                    <circle cx="28.649" cy="28.649" r="28.649" style="fill:none;stroke:rgb(84,84,84);stroke-width:1.54px;stroke-linejoin:round;stroke-miterlimit:4;"/>
                </g>
                <path id="Path_1931" d="M645.015,198.135C645.015,198.135 645.015,198.136 645.015,198.136C645.015,199.259 644.091,200.183 642.968,200.183C641.845,200.183 640.921,199.259 640.921,198.136C640.921,197.013 641.845,196.089 642.968,196.089C642.968,196.089 642.969,196.089 642.969,196.089C644.091,196.089 645.015,197.013 645.015,198.135" style="fill:rgb(8,197,255);fill-rule:nonzero;"/>
                <g id="Ellipse_27" transform="matrix(1,0,0,1,640.922,197.558)">
                    <ellipse cx="2.046" cy="0.774" rx="2.046" ry="0.774" style="fill:none;stroke:rgb(84,84,84);stroke-width:0.94px;"/>
                </g>
                <path id="Path_1932" d="M624.614,183.544C624.614,183.544 624.614,183.545 624.614,183.545C624.614,184.668 623.69,185.592 622.567,185.592C621.444,185.592 620.52,184.668 620.52,183.545C620.52,182.422 621.444,181.498 622.567,181.498C622.567,181.498 622.568,181.498 622.568,181.498C623.69,181.499 624.613,182.422 624.614,183.544" style="fill:rgb(8,197,255);fill-rule:nonzero;"/>
                <g id="Ellipse_28" transform="matrix(1,0,0,1,620.521,181.498)">
                    <circle cx="2.046" cy="2.046" r="2.046" style="fill:none;stroke:rgb(84,84,84);stroke-width:1.54px;"/>
                </g>
                <path id="Path_1933" d="M610.653,205.685C610.653,206.807 609.729,207.731 608.607,207.731C607.485,207.731 606.561,206.807 606.561,205.685C606.561,204.563 607.485,203.639 608.607,203.639C609.729,203.639 610.653,204.563 610.653,205.685" style="fill:white;fill-rule:nonzero;"/>
                <g id="Ellipse_29" transform="matrix(1,0,0,1,606.561,203.639)">
                    <circle cx="2.046" cy="2.046" r="2.046" style="fill:none;stroke:rgb(84,84,84);stroke-width:1.54px;"/>
                </g>
                <path id="Path_1934" d="M588.144,224.641C588.144,224.643 588.144,224.644 588.144,224.646C588.144,225.768 587.22,226.692 586.098,226.692C584.976,226.692 584.052,225.768 584.052,224.646C584.052,223.524 584.976,222.6 586.098,222.6C586.099,222.6 586.099,222.6 586.1,222.6C587.223,222.6 588.146,223.523 588.147,224.646" style="fill:white;fill-rule:nonzero;"/>
                <g id="Ellipse_30" transform="matrix(1,0,0,1,584.051,222.595)">
                    <circle cx="2.046" cy="2.046" r="2.046" style="fill:none;stroke:rgb(84,84,84);stroke-width:1.54px;"/>
                </g>
                <path id="Path_1935" d="M657.719,171.437C657.719,172.56 656.795,173.484 655.672,173.484C654.549,173.484 653.625,172.56 653.625,171.437C653.625,170.314 654.549,169.39 655.672,169.39C655.672,169.39 655.673,169.39 655.673,169.39C656.795,169.39 657.719,170.314 657.719,171.436C657.719,171.436 657.719,171.437 657.719,171.437" style="fill:white;fill-rule:nonzero;"/>
                <g id="Ellipse_31" transform="matrix(1,0,0,1,653.626,169.39)">
                    <circle cx="2.046" cy="2.046" r="2.046" style="fill:none;stroke:rgb(84,84,84);stroke-width:1.54px;"/>
                </g>
                <path id="Path_1936" d="M590.924,214.41C590.924,215.205 590.269,215.86 589.474,215.86C588.679,215.86 588.024,215.205 588.024,214.41C588.024,213.615 588.679,212.96 589.474,212.96C590.269,212.96 590.924,213.615 590.924,214.41" style="fill:white;fill-rule:nonzero;"/>
                <path id="Path_1937" d="M590.924,214.41C590.924,215.205 590.269,215.86 589.474,215.86C588.679,215.86 588.024,215.205 588.024,214.41C588.024,213.615 588.679,212.96 589.474,212.96C590.269,212.96 590.924,213.615 590.924,214.41Z" style="fill:none;fill-rule:nonzero;stroke:rgb(84,84,84);stroke-width:1.54px;"/>
                <path id="Path_1938" d="M647.4,214.41C647.4,215.977 646.111,217.266 644.544,217.266C642.977,217.266 641.688,215.977 641.688,214.41C641.688,212.843 642.977,211.554 644.544,211.554C646.111,211.554 647.4,212.843 647.4,214.41" style="fill:white;fill-rule:nonzero;"/>
                <path id="Path_1939" d="M647.4,214.41C647.4,215.977 646.111,217.266 644.544,217.266C642.977,217.266 641.688,215.977 641.688,214.41C641.688,212.843 642.977,211.554 644.544,211.554C646.111,211.554 647.4,212.843 647.4,214.41Z" style="fill:none;fill-rule:nonzero;stroke:rgb(84,84,84);stroke-width:1.54px;"/>
                <path id="Path_1940" d="M595.65,192.232C595.65,193.799 594.36,195.089 592.793,195.089C591.226,195.089 589.936,193.799 589.936,192.232C589.936,190.665 591.226,189.375 592.793,189.375C592.793,189.375 592.794,189.375 592.794,189.375C594.361,189.375 595.65,190.664 595.65,192.231C595.65,192.231 595.65,192.232 595.65,192.232" style="fill:white;fill-rule:nonzero;"/>
                <path id="Path_1941" d="M595.65,192.232C595.65,193.799 594.36,195.089 592.793,195.089C591.226,195.089 589.936,193.799 589.936,192.232C589.936,190.665 591.226,189.375 592.793,189.375C592.793,189.375 592.794,189.375 592.794,189.375C594.361,189.375 595.65,190.664 595.65,192.231C595.65,192.231 595.65,192.232 595.65,192.232Z" style="fill:none;fill-rule:nonzero;stroke:rgb(84,84,84);stroke-width:1.54px;"/>
                <path id="Path_1942" d="M609.886,223.192C609.886,225.112 608.306,226.692 606.386,226.692C604.466,226.692 602.886,225.112 602.886,223.192C602.886,221.272 604.466,219.692 606.386,219.692C608.306,219.692 609.886,221.272 609.886,223.192" style="fill:rgb(8,197,255);fill-rule:nonzero;"/>
                <path id="Path_1943" d="M609.886,223.192C609.886,225.112 608.306,226.692 606.386,226.692C604.466,226.692 602.886,225.112 602.886,223.192C602.886,221.272 604.466,219.692 606.386,219.692C608.306,219.692 609.886,221.272 609.886,223.192Z" style="fill:none;fill-rule:nonzero;stroke:rgb(84,84,84);stroke-width:1.54px;"/>
                <path id="Path_1944" d="M646.912,180.048C646.912,181.968 645.332,183.548 643.412,183.548C641.492,183.548 639.912,181.968 639.912,180.048C639.912,178.128 641.492,176.548 643.412,176.548C645.332,176.548 646.912,178.128 646.912,180.048" style="fill:rgb(8,197,255);fill-rule:nonzero;"/>
                <path id="Path_1945" d="M646.912,180.048C646.912,181.968 645.332,183.548 643.412,183.548C641.492,183.548 639.912,181.968 639.912,180.048C639.912,178.128 641.492,176.548 643.412,176.548C645.332,176.548 646.912,178.128 646.912,180.048Z" style="fill:none;fill-rule:nonzero;stroke:rgb(84,84,84);stroke-width:1.54px;"/>
            </g>
        </g>
    </g>
</svg>
