<?xml version="1.0" encoding="UTF-8" standalone="no"?>
<!DOCTYPE svg PUBLIC "-//W3C//DTD SVG 1.1//EN" "http://www.w3.org/Graphics/SVG/1.1/DTD/svg11.dtd">
<svg width="100%" height="100%" viewBox="0 0 142 143" version="1.1" xmlns="http://www.w3.org/2000/svg" xmlns:xlink="http://www.w3.org/1999/xlink" xml:space="preserve" xmlns:serif="http://www.serif.com/" style="fill-rule:evenodd;clip-rule:evenodd;stroke-miterlimit:10;">
    <g transform="matrix(1.61155,0,0,1.61155,-3508.91,-9784.64)">
        <g id="Group_5259">
            <g id="Group_5229">
                <g id="Path_2322" transform="matrix(1,0,0,1,3996.52,9527.5)">
                    <path d="M-1775.38,-3443.1L-1803.11,-3443.1C-1803.12,-3443.1 -1803.12,-3443.1 -1803.12,-3443.1C-1810.18,-3443.1 -1816,-3437.28 -1816,-3430.22C-1816,-3430.22 -1816,-3430.22 -1816,-3430.21C-1816,-3430.21 -1816,-3430.21 -1816,-3430.21C-1816,-3424.91 -1811.64,-3420.55 -1806.34,-3420.55C-1806.34,-3420.55 -1806.34,-3420.55 -1806.34,-3420.55C-1806.33,-3420.55 -1806.33,-3420.55 -1806.33,-3420.55C-1801.03,-3420.55 -1796.67,-3424.91 -1796.67,-3430.21C-1796.67,-3430.21 -1796.67,-3430.21 -1796.67,-3430.21C-1796.67,-3430.21 -1796.67,-3430.22 -1796.67,-3430.22C-1796.67,-3433.75 -1799.58,-3436.65 -1803.11,-3436.65L-1803.12,-3436.65C-1806.65,-3436.65 -1809.56,-3433.75 -1809.56,-3430.22L-1809.56,-3430.21C-1809.56,-3428.45 -1808.1,-3426.99 -1806.34,-3426.99L-1806.33,-3426.99C-1804.57,-3426.99 -1803.11,-3428.45 -1803.11,-3430.21C-1803.11,-3430.21 -1803.11,-3430.21 -1803.11,-3430.21" style="fill:none;fill-rule:nonzero;stroke:rgb(84,84,84);stroke-width:1.69px;"/>
                </g>
                <g id="Line_579" transform="matrix(1,0,0,1,2198.36,6102.44)">
                    <path d="M0,0L22.779,0" style="fill:none;fill-rule:nonzero;stroke:rgb(84,84,84);stroke-width:1.69px;"/>
                </g>
                <g id="Path_2323" transform="matrix(1,0,0,1,3996.52,9527.5)">
                    <path d="M-1775.24,-3379.98L-1797.92,-3379.98L-1797.92,-3425.06L-1775.24,-3425.06" style="fill:white;fill-rule:nonzero;stroke:rgb(84,84,84);stroke-width:1.69px;"/>
                </g>
                <g id="Path_2324" transform="matrix(1,0,0,1,3996.52,9527.5)">
                    <path d="M-1793.32,-3379.98L-1793.32,-3415.88C-1793.32,-3418.33 -1791.31,-3420.34 -1788.86,-3420.34C-1786.41,-3420.34 -1784.4,-3418.33 -1784.4,-3415.88L-1784.4,-3379.98" style="fill:none;fill-rule:nonzero;stroke:rgb(84,84,84);stroke-width:1.69px;"/>
                </g>
                <g id="Path_2325" transform="matrix(1,0,0,1,3996.52,9527.5)">
                    <path d="M-1775.24,-3443.1L-1747.51,-3443.1C-1747.51,-3443.1 -1747.51,-3443.1 -1747.5,-3443.1C-1740.44,-3443.1 -1734.63,-3437.28 -1734.63,-3430.22C-1734.63,-3430.22 -1734.63,-3430.22 -1734.63,-3430.21C-1734.63,-3430.21 -1734.63,-3430.21 -1734.63,-3430.21C-1734.63,-3424.91 -1738.99,-3420.55 -1744.28,-3420.55C-1744.29,-3420.55 -1744.29,-3420.55 -1744.29,-3420.55C-1744.29,-3420.55 -1744.29,-3420.55 -1744.3,-3420.55C-1749.59,-3420.55 -1753.95,-3424.91 -1753.95,-3430.21L-1753.95,-3430.22C-1753.95,-3433.75 -1751.05,-3436.65 -1747.51,-3436.65L-1747.51,-3436.65C-1743.98,-3436.65 -1741.07,-3433.75 -1741.07,-3430.22C-1741.07,-3430.22 -1741.07,-3430.21 -1741.07,-3430.21C-1741.07,-3430.21 -1741.07,-3430.21 -1741.07,-3430.21C-1741.07,-3428.45 -1742.52,-3426.99 -1744.29,-3426.99L-1744.29,-3426.99C-1746.06,-3426.99 -1747.51,-3428.45 -1747.51,-3430.21C-1747.51,-3430.21 -1747.51,-3430.21 -1747.51,-3430.21" style="fill:none;fill-rule:nonzero;stroke:rgb(84,84,84);stroke-width:1.69px;"/>
                </g>
                <g id="Line_580" transform="matrix(1,0,0,1,2221.27,6102.44)">
                    <path d="M22.779,0L0,0" style="fill:none;fill-rule:nonzero;stroke:rgb(84,84,84);stroke-width:1.69px;"/>
                </g>
                <g id="Path_2326" transform="matrix(1,0,0,1,3996.52,9527.5)">
                    <path d="M-1775.38,-3379.98L-1752.7,-3379.98L-1752.7,-3425.06L-1775.38,-3425.06" style="fill:white;fill-rule:nonzero;stroke:rgb(84,84,84);stroke-width:1.69px;"/>
                </g>
                <g id="Path_2327" transform="matrix(1,0,0,1,3996.52,9527.5)">
                    <path d="M-1757.3,-3379.98L-1757.3,-3415.88C-1757.3,-3418.32 -1759.31,-3420.34 -1761.76,-3420.34C-1764.21,-3420.34 -1766.22,-3418.33 -1766.22,-3415.88L-1766.22,-3379.98" style="fill:none;fill-rule:nonzero;stroke:rgb(84,84,84);stroke-width:1.69px;"/>
                </g>
                <g id="Path_2328" transform="matrix(1,0,0,1,3996.52,9527.5)">
                    <path d="M-1779.84,-3379.98L-1779.84,-3415.88C-1779.84,-3418.32 -1777.83,-3420.34 -1775.38,-3420.34C-1772.93,-3420.34 -1770.92,-3418.33 -1770.92,-3415.88L-1770.92,-3379.98" style="fill:none;fill-rule:nonzero;stroke:rgb(84,84,84);stroke-width:1.69px;"/>
                </g>
                <g id="Rectangle_26791" transform="matrix(1,0,0,1,2194.08,6143.01)">
                    <rect x="0" y="0" width="54.101" height="4.508" style="fill:rgb(8,197,255);"/>
                </g>
                <g id="Rectangle_26792" transform="matrix(1,0,0,1,2194.08,6143.01)">
                    <rect x="0" y="0" width="54.101" height="4.508" style="fill:none;stroke:rgb(84,84,84);stroke-width:1.69px;"/>
                </g>
                <g id="Rectangle_26793" transform="matrix(1,0,0,1,2199.84,6097.28)">
                    <rect x="0" y="0" width="42.635" height="5.153" style="fill:rgb(239,94,94);"/>
                </g>
                <g id="Rectangle_26794" transform="matrix(1,0,0,1,2199.84,6097.28)">
                    <rect x="0" y="0" width="42.635" height="5.153" style="fill:none;stroke:rgb(84,84,84);stroke-width:1.69px;"/>
                </g>
                <g id="Line_581" transform="matrix(1,0,0,1,2198.55,6084.4)">
                    <path d="M0,0L0,4.508" style="fill:none;fill-rule:nonzero;stroke:rgb(84,84,84);stroke-width:1.69px;"/>
                </g>
                <g id="Line_582" transform="matrix(1,0,0,1,2203.1,6084.4)">
                    <path d="M0,0L0,4.508" style="fill:none;fill-rule:nonzero;stroke:rgb(84,84,84);stroke-width:1.69px;"/>
                </g>
                <g id="Line_583" transform="matrix(1,0,0,1,2207.61,6084.4)">
                    <path d="M0,0L0,4.508" style="fill:none;fill-rule:nonzero;stroke:rgb(84,84,84);stroke-width:1.69px;"/>
                </g>
                <g id="Line_584" transform="matrix(1,0,0,1,2212.14,6084.4)">
                    <path d="M0,0L0,4.508" style="fill:none;fill-rule:nonzero;stroke:rgb(84,84,84);stroke-width:1.69px;"/>
                </g>
                <g id="Line_585" transform="matrix(1,0,0,1,2216.7,6084.4)">
                    <path d="M0,0L0,4.508" style="fill:none;fill-rule:nonzero;stroke:rgb(84,84,84);stroke-width:1.69px;"/>
                </g>
                <g id="Line_586" transform="matrix(1,0,0,1,2221.2,6084.4)">
                    <path d="M0,0L0,4.508" style="fill:none;fill-rule:nonzero;stroke:rgb(84,84,84);stroke-width:1.69px;"/>
                </g>
                <g id="Line_587" transform="matrix(1,0,0,1,2225.62,6084.4)">
                    <path d="M0,0L0,4.508" style="fill:none;fill-rule:nonzero;stroke:rgb(84,84,84);stroke-width:1.69px;"/>
                </g>
                <g id="Line_588" transform="matrix(1,0,0,1,2230.17,6084.4)">
                    <path d="M0,0L0,4.508" style="fill:none;fill-rule:nonzero;stroke:rgb(84,84,84);stroke-width:1.69px;"/>
                </g>
                <g id="Line_589" transform="matrix(1,0,0,1,2234.68,6084.4)">
                    <path d="M0,0L0,4.508" style="fill:none;fill-rule:nonzero;stroke:rgb(84,84,84);stroke-width:1.69px;"/>
                </g>
                <g id="Line_590" transform="matrix(1,0,0,1,2239.14,6084.4)">
                    <path d="M0,0L0,4.508" style="fill:none;fill-rule:nonzero;stroke:rgb(84,84,84);stroke-width:1.69px;"/>
                </g>
                <g id="Line_591" transform="matrix(1,0,0,1,2243.7,6084.4)">
                    <path d="M0,0L0,4.508" style="fill:none;fill-rule:nonzero;stroke:rgb(84,84,84);stroke-width:1.69px;"/>
                </g>
            </g>
        </g>
    </g>
</svg>
