<?xml version="1.0" encoding="UTF-8" standalone="no"?>
<!DOCTYPE svg PUBLIC "-//W3C//DTD SVG 1.1//EN" "http://www.w3.org/Graphics/SVG/1.1/DTD/svg11.dtd">
<svg width="100%" height="100%" viewBox="0 0 143 143" version="1.1" xmlns="http://www.w3.org/2000/svg" xmlns:xlink="http://www.w3.org/1999/xlink" xml:space="preserve" xmlns:serif="http://www.serif.com/" style="fill-rule:evenodd;clip-rule:evenodd;stroke-miterlimit:10;">
    <g transform="matrix(1.6332,0,0,1.6332,-3812.82,-8536.24)">
        <g id="Group_5258">
            <g id="Group_5227">
                <g id="Rectangle_26819" transform="matrix(0.288,-0.958,0.958,0.288,2337.97,5259.73)">
                    <rect x="0" y="0" width="21.681" height="5.371" style="fill:rgb(8,197,255);"/>
                </g>
                <g id="Rectangle_26820" transform="matrix(0.288,-0.958,0.958,0.288,2337.97,5259.73)">
                    <rect x="0" y="0" width="21.681" height="5.371" style="fill:none;stroke:rgb(84,84,84);stroke-width:1.69px;"/>
                </g>
                <g id="Rectangle_26821" transform="matrix(0.288,-0.958,0.958,0.288,2343.89,5258.71)">
                    <rect x="0" y="0" width="16.115" height="64.461" style="fill:white;"/>
                </g>
                <g id="Rectangle_26822" transform="matrix(0.288,-0.958,0.958,0.288,2343.89,5258.71)">
                    <rect x="0" y="0" width="16.115" height="64.461" style="fill:none;stroke:rgb(84,84,84);stroke-width:1.69px;"/>
                </g>
                <g id="Rectangle_26823" transform="matrix(0.287762,-0.957702,0.957702,0.287762,2406.49,5274.37)">
                    <rect x="0" y="0" width="10.744" height="5.372" style="fill:rgb(239,94,94);"/>
                </g>
                <g id="Rectangle_26824" transform="matrix(0.287762,-0.957702,0.957702,0.287762,2406.49,5274.37)">
                    <rect x="0" y="0" width="10.744" height="5.372" style="fill:none;stroke:rgb(84,84,84);stroke-width:1.69px;"/>
                </g>
                <g id="Rectangle_26825" transform="matrix(0.287879,-0.957667,0.957667,0.287879,2412.31,5273.66)">
                    <rect x="0" y="0" width="5.372" height="5.372" style="fill:rgb(8,197,255);"/>
                </g>
                <g id="Rectangle_26826" transform="matrix(0.287879,-0.957667,0.957667,0.287879,2412.31,5273.66)">
                    <rect x="0" y="0" width="5.372" height="5.372" style="fill:none;stroke:rgb(84,84,84);stroke-width:1.69px;"/>
                </g>
                <g id="Path_2358" transform="matrix(1,0,0,1,4298.04,8826.33)">
                    <path d="M-1910.82,-3561.8C-1910.82,-3556.95 -1914.81,-3552.97 -1919.65,-3552.97C-1924.5,-3552.97 -1928.49,-3556.95 -1928.49,-3561.8C-1928.49,-3566.65 -1924.5,-3570.63 -1919.65,-3570.63C-1914.81,-3570.63 -1910.82,-3566.65 -1910.82,-3561.8" style="fill:white;fill-rule:nonzero;"/>
                </g>
                <g id="Ellipse_62" transform="matrix(1,0,0,1,2369.56,5255.69)">
                    <circle cx="8.835" cy="8.835" r="8.835" style="fill:none;stroke:rgb(84,84,84);stroke-width:1.69px;"/>
                </g>
                <g id="Path_2359" transform="matrix(1,0,0,1,4298.04,8826.33)">
                    <path d="M-1915.66,-3561.8C-1915.66,-3559.61 -1917.46,-3557.8 -1919.65,-3557.8C-1921.85,-3557.8 -1923.65,-3559.61 -1923.65,-3561.8C-1923.65,-3563.99 -1921.85,-3565.8 -1919.65,-3565.8C-1917.46,-3565.8 -1915.66,-3563.99 -1915.66,-3561.8" style="fill:rgb(239,94,94);fill-rule:nonzero;"/>
                </g>
                <g id="Ellipse_63" transform="matrix(1,0,0,1,2374.4,5260.53)">
                    <circle cx="3.996" cy="3.996" r="3.996" style="fill:none;stroke:rgb(84,84,84);stroke-width:1.69px;"/>
                </g>
                <g id="Line_638" transform="matrix(1,0,0,1,2360.36,5270.5)">
                    <path d="M11.525,0L0,31.585" style="fill:none;fill-rule:nonzero;stroke:rgb(84,84,84);stroke-width:1.69px;"/>
                </g>
                <g id="Line_639" transform="matrix(1,0,0,1,2384.9,5270.5)">
                    <path d="M0,0L11.525,31.585" style="fill:none;fill-rule:nonzero;stroke:rgb(84,84,84);stroke-width:1.69px;"/>
                </g>
                <g id="Ellipse_64" transform="matrix(1,0,0,1,2337.82,5277.29)">
                    <circle cx="5.653" cy="5.653" r="5.653" style="fill:none;stroke:rgb(84,84,84);stroke-width:1.69px;"/>
                </g>
                <g id="Ellipse_65" transform="matrix(1,0,0,1,2395.28,5238.97)">
                    <circle cx="5.653" cy="5.653" r="5.653" style="fill:none;stroke:rgb(84,84,84);stroke-width:1.69px;"/>
                </g>
                <g id="Path_2360" transform="matrix(1,0,0,1,4298.04,8826.33)">
                    <path d="M-1891.39,-3529.9C-1888.29,-3529.9 -1885.74,-3527.35 -1885.74,-3524.25C-1885.74,-3527.35 -1883.18,-3529.9 -1880.08,-3529.9C-1883.18,-3529.9 -1885.74,-3532.45 -1885.74,-3535.55C-1885.74,-3532.45 -1888.29,-3529.9 -1891.39,-3529.9Z" style="fill:none;fill-rule:nonzero;stroke:rgb(84,84,84);stroke-width:1.69px;"/>
                </g>
            </g>
        </g>
    </g>
</svg>
