<?xml version="1.0" encoding="UTF-8" standalone="no"?>
<!DOCTYPE svg PUBLIC "-//W3C//DTD SVG 1.1//EN" "http://www.w3.org/Graphics/SVG/1.1/DTD/svg11.dtd">
<svg width="100%" height="100%" viewBox="0 0 143 143" version="1.1" xmlns="http://www.w3.org/2000/svg" xmlns:xlink="http://www.w3.org/1999/xlink" xml:space="preserve" xmlns:serif="http://www.serif.com/" style="fill-rule:evenodd;clip-rule:evenodd;stroke-miterlimit:10;">
    <g transform="matrix(1.62829,0,0,1.62829,-5290.16,-9633.94)">
        <g id="Group_5275">
            <g id="Group_5240">
                <g id="Path_2518" transform="matrix(1,0,0,1,3996.52,9527.5)">
                    <path d="M-690.138,-3547.21L-690.465,-3562L-693.085,-3570.3C-693.181,-3570.64 -693.363,-3570.95 -693.614,-3571.2C-694.003,-3571.59 -694.531,-3571.81 -695.081,-3571.81C-695.632,-3571.81 -696.16,-3571.59 -696.549,-3571.2C-697.087,-3570.67 -697.288,-3569.87 -697.07,-3569.14L-695.43,-3561.74L-696.795,-3554.64L-707.11,-3554.31L-712.186,-3558.62L-713.22,-3566.11L-709.808,-3571.58C-709.127,-3572.41 -709.188,-3573.63 -709.948,-3574.39C-710.342,-3574.79 -710.877,-3575.01 -711.434,-3575.01C-711.991,-3575.01 -712.526,-3574.79 -712.92,-3574.39C-712.978,-3574.34 -715.971,-3570.41 -715.971,-3570.41L-715.971,-3571.64C-715.951,-3572.22 -716.173,-3572.78 -716.583,-3573.19C-716.977,-3573.58 -717.512,-3573.81 -718.069,-3573.81C-718.626,-3573.81 -719.161,-3573.58 -719.555,-3573.19C-719.98,-3572.77 -720.202,-3572.18 -720.165,-3571.58L-720.165,-3564.54L-721.151,-3567.51C-721.315,-3568.06 -721.704,-3568.53 -722.223,-3568.79C-722.515,-3568.94 -722.838,-3569.01 -723.165,-3569.01C-723.959,-3569.01 -724.688,-3568.56 -725.043,-3567.85C-725.312,-3567.32 -725.338,-3566.69 -725.114,-3566.13L-722.981,-3559.71L-724.295,-3561.68C-724.6,-3562.18 -725.097,-3562.52 -725.667,-3562.64C-725.803,-3562.66 -725.941,-3562.68 -726.079,-3562.68C-727.077,-3562.68 -727.945,-3561.97 -728.139,-3560.99C-728.257,-3560.4 -728.115,-3559.79 -727.751,-3559.31L-723.806,-3553.39C-723.632,-3552.94 -723.309,-3552.57 -722.892,-3552.33C-722.79,-3552.27 -722.683,-3552.21 -722.571,-3552.16L-714.833,-3548.02C-714.656,-3547.91 -714.464,-3547.83 -714.264,-3547.78L-707.874,-3542.41L-707.874,-3535.45L-692.574,-3535.45L-692.593,-3542.41C-690.573,-3543.99 -690.137,-3547.21 -690.137,-3547.21" style="fill:white;fill-rule:nonzero;"/>
                </g>
                <g id="Path_2519" transform="matrix(1,0,0,1,3996.52,9527.5)">
                    <path d="M-690.138,-3547.21L-690.465,-3562L-693.085,-3570.3C-693.181,-3570.64 -693.363,-3570.95 -693.614,-3571.2C-694.003,-3571.59 -694.531,-3571.81 -695.081,-3571.81C-695.632,-3571.81 -696.16,-3571.59 -696.549,-3571.2C-697.087,-3570.67 -697.288,-3569.87 -697.07,-3569.14L-695.43,-3561.74L-696.795,-3554.64L-707.11,-3554.31L-712.186,-3558.62L-713.22,-3566.11L-709.808,-3571.58C-709.127,-3572.41 -709.188,-3573.63 -709.948,-3574.39C-710.342,-3574.79 -710.877,-3575.01 -711.434,-3575.01C-711.991,-3575.01 -712.526,-3574.79 -712.92,-3574.39C-712.978,-3574.34 -715.971,-3570.41 -715.971,-3570.41L-715.971,-3571.64C-715.951,-3572.22 -716.173,-3572.78 -716.583,-3573.19C-716.977,-3573.58 -717.512,-3573.81 -718.069,-3573.81C-718.626,-3573.81 -719.161,-3573.58 -719.555,-3573.19C-719.98,-3572.77 -720.202,-3572.18 -720.165,-3571.58L-720.165,-3564.54L-721.151,-3567.51C-721.315,-3568.06 -721.704,-3568.53 -722.223,-3568.79C-722.515,-3568.94 -722.838,-3569.01 -723.165,-3569.01C-723.959,-3569.01 -724.688,-3568.56 -725.043,-3567.85C-725.312,-3567.32 -725.338,-3566.69 -725.114,-3566.13L-722.981,-3559.71L-724.295,-3561.68C-724.6,-3562.18 -725.097,-3562.52 -725.667,-3562.64C-725.803,-3562.66 -725.941,-3562.68 -726.079,-3562.68C-727.077,-3562.68 -727.945,-3561.97 -728.139,-3560.99C-728.257,-3560.4 -728.115,-3559.79 -727.751,-3559.31L-723.806,-3553.39C-723.632,-3552.94 -723.309,-3552.57 -722.892,-3552.33C-722.79,-3552.27 -722.683,-3552.21 -722.571,-3552.16L-714.833,-3548.02C-714.656,-3547.91 -714.464,-3547.83 -714.264,-3547.78L-707.874,-3542.41L-707.874,-3535.45L-692.574,-3535.45L-692.593,-3542.41C-690.574,-3543.99 -690.138,-3547.21 -690.138,-3547.21Z" style="fill:none;fill-rule:nonzero;stroke:rgb(84,84,84);stroke-width:1.69px;"/>
                </g>
                <g id="Rectangle_26852" transform="matrix(1,0,0,1,3287.19,5951.54)">
                    <rect x="0" y="0" width="12.14" height="8.981" style="fill:rgb(239,94,94);"/>
                </g>
                <g id="Rectangle_26853" transform="matrix(1,0,0,1,3287.19,5951.54)">
                    <rect x="0" y="0" width="12.14" height="8.981" style="fill:none;stroke:rgb(84,84,84);stroke-width:1.69px;"/>
                </g>
                <g id="Rectangle_26854" transform="matrix(1,0,0,1,3290.23,5960.58)">
                    <rect x="0" y="0" width="6.07" height="4.491" style="fill:rgb(239,94,94);"/>
                </g>
                <g id="Rectangle_26855" transform="matrix(1,0,0,1,3290.23,5960.58)">
                    <rect x="0" y="0" width="6.07" height="4.491" style="fill:none;stroke:rgb(84,84,84);stroke-width:1.69px;"/>
                </g>
                <g id="Path_2520" transform="matrix(1,0,0,1,3996.52,9527.5)">
                    <path d="M-694.443,-3586.43C-694.239,-3587.27 -694.118,-3588.12 -694.083,-3588.99C-694.083,-3594.2 -698.376,-3598.5 -703.593,-3598.5C-708.81,-3598.5 -713.103,-3594.2 -713.103,-3588.99C-713.08,-3587.53 -712.802,-3586.08 -712.281,-3584.72L-709.322,-3575.96L-697.182,-3575.96L-694.443,-3586.43Z" style="fill:white;fill-rule:nonzero;"/>
                </g>
                <g id="Path_2521" transform="matrix(1,0,0,1,3996.52,9527.5)">
                    <path d="M-694.443,-3586.43C-694.239,-3587.27 -694.118,-3588.12 -694.083,-3588.99C-694.083,-3594.2 -698.376,-3598.5 -703.593,-3598.5C-708.81,-3598.5 -713.103,-3594.2 -713.103,-3588.99C-713.08,-3587.53 -712.802,-3586.08 -712.281,-3584.72L-709.322,-3575.96L-697.182,-3575.96L-694.443,-3586.43Z" style="fill:none;fill-rule:nonzero;stroke:rgb(84,84,84);stroke-width:1.69px;"/>
                </g>
                <g id="Rectangle_26856" transform="matrix(1,0,0,1,3290.96,5944.01)">
                    <rect x="0" y="0" width="4.6" height="7.538" style="fill:white;"/>
                </g>
                <g id="Rectangle_26857" transform="matrix(1,0,0,1,3290.96,5944.01)">
                    <rect x="0" y="0" width="4.6" height="7.538" style="fill:none;stroke:rgb(84,84,84);stroke-width:1.69px;"/>
                </g>
                <g id="Path_2522" transform="matrix(1,0,0,1,3996.52,9527.5)">
                    <path d="M-701.494,-3583.49L-698.118,-3589.09L-699.68,-3590.28L-701.673,-3589.31L-703.252,-3590.28L-704.832,-3589.31L-706.825,-3590.28L-708.387,-3589.09L-705.011,-3583.49L-701.494,-3583.49Z" style="fill:white;fill-rule:nonzero;"/>
                </g>
                <g id="Path_2523" transform="matrix(1,0,0,1,3996.52,9527.5)">
                    <path d="M-701.494,-3583.49L-698.118,-3589.09L-699.68,-3590.28L-701.673,-3589.31L-703.252,-3590.28L-704.832,-3589.31L-706.825,-3590.28L-708.387,-3589.09L-705.011,-3583.49L-701.494,-3583.49Z" style="fill:none;fill-rule:nonzero;stroke:rgb(84,84,84);stroke-width:1.69px;"/>
                </g>
                <g id="Path_2524" transform="matrix(1,0,0,1,3996.52,9527.5)">
                    <path d="M-731.606,-3571.88C-732.954,-3575.34 -733.643,-3579.02 -733.637,-3582.74C-733.642,-3586.44 -732.957,-3590.11 -731.617,-3593.56L-730.041,-3592.95C-731.303,-3589.69 -731.948,-3586.23 -731.941,-3582.74C-731.946,-3579.23 -731.296,-3575.76 -730.025,-3572.49L-731.606,-3571.88Z" style="fill:rgb(84,84,84);fill-rule:nonzero;"/>
                </g>
                <g id="Path_2525" transform="matrix(1,0,0,1,3996.52,9527.5)">
                    <path d="M-742.377,-3567.7C-744.243,-3572.49 -745.197,-3577.6 -745.19,-3582.74C-745.197,-3587.87 -744.247,-3592.96 -742.39,-3597.74L-740.814,-3597.13C-742.596,-3592.54 -743.507,-3587.66 -743.499,-3582.74C-743.506,-3577.8 -742.59,-3572.91 -740.799,-3568.31L-742.377,-3567.7Z" style="fill:rgb(84,84,84);fill-rule:nonzero;"/>
                </g>
                <g id="Path_2526" transform="matrix(1,0,0,1,3996.52,9527.5)">
                    <path d="M-665.042,-3567.73L-666.618,-3568.34C-664.836,-3572.93 -663.926,-3577.81 -663.933,-3582.74C-663.926,-3587.66 -664.836,-3592.54 -666.617,-3597.13L-665.041,-3597.74C-663.184,-3592.96 -662.235,-3587.87 -662.241,-3582.74C-662.234,-3577.61 -663.184,-3572.52 -665.041,-3567.74" style="fill:rgb(84,84,84);fill-rule:nonzero;"/>
                </g>
                <g id="Path_2527" transform="matrix(1,0,0,1,3996.52,9527.5)">
                    <path d="M-675.815,-3571.91L-677.391,-3572.52C-676.129,-3575.78 -675.484,-3579.24 -675.491,-3582.74C-675.485,-3586.23 -676.129,-3589.69 -677.391,-3592.94L-675.814,-3593.56C-674.476,-3590.11 -673.791,-3586.44 -673.797,-3582.74C-673.792,-3579.03 -674.477,-3575.36 -675.817,-3571.91" style="fill:rgb(84,84,84);fill-rule:nonzero;"/>
                </g>
                <g id="Path_2528" transform="matrix(1,0,0,1,3996.52,9527.5)">
                    <path d="M-721.257,-3575.9C-722.108,-3578.08 -722.544,-3580.4 -722.542,-3582.74C-722.544,-3585.06 -722.112,-3587.37 -721.267,-3589.55L-719.691,-3588.93C-720.46,-3586.96 -720.854,-3584.85 -720.852,-3582.73C-720.854,-3580.6 -720.456,-3578.49 -719.681,-3576.51L-721.257,-3575.9Z" style="fill:rgb(84,84,84);fill-rule:nonzero;"/>
                </g>
                <g id="Path_2529" transform="matrix(1,0,0,1,3996.52,9527.5)">
                    <path d="M-731.606,-3571.88C-732.954,-3575.34 -733.643,-3579.02 -733.637,-3582.74C-733.642,-3586.44 -732.957,-3590.11 -731.617,-3593.56L-730.041,-3592.95C-731.303,-3589.69 -731.948,-3586.23 -731.941,-3582.74C-731.946,-3579.23 -731.296,-3575.76 -730.025,-3572.49L-731.606,-3571.88Z" style="fill:rgb(84,84,84);fill-rule:nonzero;"/>
                </g>
                <g id="Path_2530" transform="matrix(1,0,0,1,3996.52,9527.5)">
                    <path d="M-686.164,-3575.93L-687.741,-3576.54C-686.972,-3578.52 -686.579,-3580.62 -686.581,-3582.74C-686.579,-3584.86 -686.971,-3586.95 -687.737,-3588.93L-686.161,-3589.54C-685.319,-3587.37 -684.888,-3585.06 -684.89,-3582.74C-684.888,-3580.41 -685.32,-3578.1 -686.164,-3575.93" style="fill:rgb(84,84,84);fill-rule:nonzero;"/>
                </g>
                <g id="Path_2531" transform="matrix(1,0,0,1,3996.52,9527.5)">
                    <path d="M-675.815,-3571.91L-677.391,-3572.52C-676.129,-3575.78 -675.484,-3579.24 -675.491,-3582.74C-675.485,-3586.23 -676.129,-3589.69 -677.391,-3592.94L-675.814,-3593.56C-674.476,-3590.11 -673.791,-3586.44 -673.797,-3582.74C-673.792,-3579.03 -674.477,-3575.36 -675.817,-3571.91" style="fill:rgb(84,84,84);fill-rule:nonzero;"/>
                </g>
                <g id="Path_2532" transform="matrix(1,0,0,1,3996.52,9527.5)">
                    <path d="M-686.164,-3575.93L-687.741,-3576.54C-686.972,-3578.52 -686.579,-3580.62 -686.581,-3582.74C-686.579,-3584.86 -686.971,-3586.95 -687.737,-3588.93L-686.161,-3589.54C-685.319,-3587.37 -684.888,-3585.06 -684.89,-3582.74C-684.888,-3580.41 -685.32,-3578.1 -686.164,-3575.93" style="fill:rgb(84,84,84);fill-rule:nonzero;"/>
                </g>
                <g id="Path_2533" transform="matrix(1,0,0,1,3996.52,9527.5)">
                    <path d="M-721.257,-3575.9C-722.108,-3578.08 -722.544,-3580.4 -722.542,-3582.74C-722.544,-3585.06 -722.112,-3587.37 -721.267,-3589.55L-719.691,-3588.93C-720.46,-3586.96 -720.854,-3584.85 -720.852,-3582.73C-720.854,-3580.6 -720.456,-3578.49 -719.681,-3576.51L-721.257,-3575.9Z" style="fill:rgb(84,84,84);fill-rule:nonzero;"/>
                </g>
                <g id="Rectangle_26858" transform="matrix(1,0,0,1,3285.6,5986.27)">
                    <rect x="0" y="0" width="21.626" height="5.776" style="fill:rgb(8,197,255);"/>
                </g>
                <g id="Rectangle_26859" transform="matrix(1,0,0,1,3285.6,5986.27)">
                    <rect x="0" y="0" width="21.626" height="5.776" style="fill:none;stroke:rgb(84,84,84);stroke-width:1.69px;"/>
                </g>
            </g>
        </g>
    </g>
</svg>
