<?xml version="1.0" encoding="UTF-8" standalone="no"?>
<!DOCTYPE svg PUBLIC "-//W3C//DTD SVG 1.1//EN" "http://www.w3.org/Graphics/SVG/1.1/DTD/svg11.dtd">
<svg width="100%" height="100%" viewBox="0 0 142 143" version="1.1" xmlns="http://www.w3.org/2000/svg" xmlns:xlink="http://www.w3.org/1999/xlink" xml:space="preserve" xmlns:serif="http://www.serif.com/" style="fill-rule:evenodd;clip-rule:evenodd;stroke-linejoin:round;stroke-miterlimit:2;">
    <g transform="matrix(1.93021,0,0,1.93021,393.306,6436.37)">
        <g id="Group_5325">
            <g id="Group_5324">
                <g id="Rectangle_26876" transform="matrix(1,0,0,1,-199.717,-3297.55)">
                    <rect x="0" y="0" width="1.493" height="17.586" style="fill:rgb(239,94,94);"/>
                </g>
                <g id="Rectangle_26877" transform="matrix(1,0,0,1,-195.736,-3297.55)">
                    <rect x="0" y="0" width="1.493" height="16.173" style="fill:rgb(239,94,94);"/>
                </g>
                <g id="Rectangle_26878" transform="matrix(1,0,0,1,-191.754,-3297.55)">
                    <rect x="0" y="0" width="1.493" height="13.396" style="fill:rgb(239,94,94);"/>
                </g>
                <g id="Rectangle_26879" transform="matrix(1,0,0,1,-187.773,-3297.55)">
                    <rect x="0" y="0" width="1.493" height="8.21" style="fill:rgb(239,94,94);"/>
                </g>
                <g id="Rectangle_26880" transform="matrix(1,0,0,1,-183.846,-3297.55)">
                    <rect x="0" y="0" width="1.493" height="8.21" style="fill:rgb(239,94,94);"/>
                </g>
                <g id="Rectangle_26881" transform="matrix(1,0,0,1,-179.865,-3297.55)">
                    <rect x="0" y="0" width="1.493" height="13.396" style="fill:rgb(239,94,94);"/>
                </g>
                <g id="Rectangle_26882" transform="matrix(1,0,0,1,-175.884,-3297.55)">
                    <rect x="0" y="0" width="1.493" height="16.173" style="fill:rgb(239,94,94);"/>
                </g>
                <g id="Rectangle_26883" transform="matrix(1,0,0,1,-171.902,-3297.55)">
                    <rect x="0" y="0" width="1.493" height="17.586" style="fill:rgb(239,94,94);"/>
                </g>
                <g id="Rectangle_26884" transform="matrix(1,0,0,1,-167.813,-3297.55)">
                    <rect x="0" y="0" width="1.493" height="18.056" style="fill:rgb(239,94,94);"/>
                </g>
                <g id="Rectangle_26885" transform="matrix(1,0,0,1,-163.832,-3297.55)">
                    <rect x="0" y="0" width="1.493" height="17.586" style="fill:rgb(239,94,94);"/>
                </g>
                <g id="Rectangle_26886" transform="matrix(1,0,0,1,-159.85,-3297.55)">
                    <rect x="0" y="0" width="1.493" height="16.173" style="fill:rgb(239,94,94);"/>
                </g>
                <g id="Rectangle_26887" transform="matrix(1,0,0,1,-155.869,-3297.55)">
                    <rect x="0" y="0" width="1.493" height="13.396" style="fill:rgb(239,94,94);"/>
                </g>
                <g id="Rectangle_26888" transform="matrix(1,0,0,1,-151.888,-3297.55)">
                    <rect x="0" y="0" width="1.493" height="8.21" style="fill:rgb(239,94,94);"/>
                </g>
                <g id="Rectangle_26889" transform="matrix(1,0,0,1,-147.96,-3297.55)">
                    <rect x="0" y="0" width="1.493" height="8.21" style="fill:rgb(239,94,94);"/>
                </g>
                <g id="Rectangle_26890" transform="matrix(1,0,0,1,-143.979,-3297.55)">
                    <rect x="0" y="0" width="1.493" height="13.396" style="fill:rgb(239,94,94);"/>
                </g>
                <g id="Rectangle_26891" transform="matrix(1,0,0,1,-139.998,-3297.55)">
                    <rect x="0" y="0" width="1.493" height="16.173" style="fill:rgb(239,94,94);"/>
                </g>
                <g id="Rectangle_26892" transform="matrix(1,0,0,1,-136.016,-3297.55)">
                    <rect x="0" y="0" width="1.493" height="17.586" style="fill:rgb(239,94,94);"/>
                </g>
                <g id="Rectangle_26893" transform="matrix(1,0,0,1,-199.717,-3314.86)">
                    <rect x="0" y="0" width="1.493" height="17.586" style="fill:rgb(8,197,255);"/>
                </g>
                <g id="Rectangle_26894" transform="matrix(1,0,0,1,-195.736,-3313.45)">
                    <rect x="0" y="0" width="1.493" height="16.173" style="fill:rgb(8,197,255);"/>
                </g>
                <g id="Rectangle_26895" transform="matrix(1,0,0,1,-191.754,-3310.67)">
                    <rect x="0" y="0" width="1.493" height="13.396" style="fill:rgb(8,197,255);"/>
                </g>
                <g id="Rectangle_26896" transform="matrix(1,0,0,1,-187.773,-3305.48)">
                    <rect x="0" y="0" width="1.493" height="8.21" style="fill:rgb(8,197,255);"/>
                </g>
                <g id="Rectangle_26897" transform="matrix(1,0,0,1,-183.846,-3305.48)">
                    <rect x="0" y="0" width="1.493" height="8.21" style="fill:rgb(8,197,255);"/>
                </g>
                <g id="Rectangle_26898" transform="matrix(1,0,0,1,-179.865,-3310.67)">
                    <rect x="0" y="0" width="1.493" height="13.396" style="fill:rgb(8,197,255);"/>
                </g>
                <g id="Rectangle_26899" transform="matrix(1,0,0,1,-175.884,-3313.45)">
                    <rect x="0" y="0" width="1.493" height="16.173" style="fill:rgb(8,197,255);"/>
                </g>
                <g id="Rectangle_26900" transform="matrix(1,0,0,1,-171.902,-3314.86)">
                    <rect x="0" y="0" width="1.493" height="17.586" style="fill:rgb(8,197,255);"/>
                </g>
                <g id="Rectangle_26901" transform="matrix(1,0,0,1,-167.813,-3315.33)">
                    <rect x="0" y="0" width="1.493" height="18.055" style="fill:rgb(8,197,255);"/>
                </g>
                <g id="Rectangle_26902" transform="matrix(1,0,0,1,-163.832,-3314.86)">
                    <rect x="0" y="0" width="1.493" height="17.586" style="fill:rgb(8,197,255);"/>
                </g>
                <g id="Rectangle_26903" transform="matrix(1,0,0,1,-159.85,-3313.45)">
                    <rect x="0" y="0" width="1.493" height="16.173" style="fill:rgb(8,197,255);"/>
                </g>
                <g id="Rectangle_26904" transform="matrix(1,0,0,1,-155.869,-3310.67)">
                    <rect x="0" y="0" width="1.493" height="13.396" style="fill:rgb(8,197,255);"/>
                </g>
                <g id="Rectangle_26905" transform="matrix(1,0,0,1,-151.888,-3305.48)">
                    <rect x="0" y="0" width="1.493" height="8.21" style="fill:rgb(8,197,255);"/>
                </g>
                <g id="Rectangle_26906" transform="matrix(1,0,0,1,-147.96,-3305.48)">
                    <rect x="0" y="0" width="1.493" height="8.21" style="fill:rgb(8,197,255);"/>
                </g>
                <g id="Rectangle_26907" transform="matrix(1,0,0,1,-143.979,-3310.67)">
                    <rect x="0" y="0" width="1.493" height="13.396" style="fill:rgb(8,197,255);"/>
                </g>
                <g id="Rectangle_26908" transform="matrix(1,0,0,1,-139.998,-3313.45)">
                    <rect x="0" y="0" width="1.493" height="16.173" style="fill:rgb(8,197,255);"/>
                </g>
                <g id="Rectangle_26909" transform="matrix(1,0,0,1,-136.016,-3314.86)">
                    <rect x="0" y="0" width="1.493" height="17.586" style="fill:rgb(8,197,255);"/>
                </g>
                <path id="Path_2927" d="M-131.235,-3278.75C-141.468,-3278.76 -149.886,-3287.18 -149.897,-3297.41C-149.908,-3306.83 -157.652,-3314.57 -167.066,-3314.58C-176.48,-3314.57 -184.224,-3306.83 -184.235,-3297.41C-184.246,-3287.18 -192.665,-3278.76 -202.9,-3278.75L-202.9,-3280.24C-193.485,-3280.25 -185.741,-3288 -185.731,-3297.41C-185.719,-3307.65 -177.301,-3316.06 -167.068,-3316.08C-156.835,-3316.06 -148.417,-3307.65 -148.406,-3297.41C-148.396,-3288 -140.652,-3280.25 -131.237,-3280.24L-131.235,-3278.75Z" style="fill:rgb(84,84,84);fill-rule:nonzero;"/>
                <path id="Path_2928" d="M-167.065,-3278.75C-177.298,-3278.76 -185.716,-3287.18 -185.728,-3297.41C-185.738,-3306.83 -193.482,-3314.57 -202.897,-3314.58L-202.897,-3316.08C-192.664,-3316.06 -184.246,-3307.64 -184.235,-3297.41C-184.224,-3288 -176.48,-3280.25 -167.065,-3280.24C-157.651,-3280.25 -149.907,-3288 -149.896,-3297.41C-149.885,-3307.64 -141.467,-3316.06 -131.234,-3316.08L-131.234,-3314.58C-140.649,-3314.57 -148.393,-3306.83 -148.403,-3297.41C-148.415,-3287.18 -156.832,-3278.76 -167.065,-3278.75Z" style="fill:rgb(84,84,84);fill-rule:nonzero;"/>
            </g>
        </g>
    </g>
</svg>
